<?xml version="1.0" encoding="utf-8"?>
<!-- Generator: Adobe Illustrator 25.4.1, SVG Export Plug-In . SVG Version: 6.00 Build 0)  -->
<svg version="1.1" id="Слой_1" xmlns="http://www.w3.org/2000/svg" xmlns:xlink="http://www.w3.org/1999/xlink" x="0px" y="0px"
	 viewBox="0 0 1000 440.6" style="enable-background:new 0 0 1000 440.6;" xml:space="preserve">
<style type="text/css">
	.st0{fill-rule:evenodd;clip-rule:evenodd;}
	.st1{fill:#93C01F;}
</style>
<g>
	<g>
		<g>
			<g>
				<path d="M395.4,220c1.1,0.5,2,1.2,2.6,2.1c0.6,0.9,0.9,2,0.9,3.3s-0.3,2.4-0.9,3.3c-0.6,0.9-1.5,1.7-2.6,2.2s-2.4,0.8-4,0.8
					h-3.9v5h-3.2v-17.5h7.2C393,219.3,394.3,219.5,395.4,220z M394.5,228.1c0.7-0.6,1.1-1.5,1.1-2.6s-0.4-2-1.1-2.6
					s-1.8-0.9-3.2-0.9h-3.8v6.9h3.8C392.7,229,393.8,228.7,394.5,228.1z"/>
				<path d="M405.5,235.9c-1.4-0.8-2.6-1.8-3.4-3.2s-1.2-2.9-1.2-4.6c0-1.7,0.4-3.2,1.2-4.6c0.8-1.4,1.9-2.4,3.4-3.2
					c1.4-0.8,3-1.2,4.8-1.2s3.4,0.4,4.8,1.2s2.6,1.8,3.4,3.2s1.2,2.9,1.2,4.6c0,1.7-0.4,3.3-1.2,4.6c-0.8,1.4-1.9,2.4-3.4,3.2
					c-1.4,0.8-3,1.2-4.8,1.2C408.5,237,406.9,236.6,405.5,235.9z M413.5,233.4c0.9-0.5,1.7-1.3,2.2-2.2s0.8-2,0.8-3.2
					s-0.3-2.2-0.8-3.2c-0.5-0.9-1.3-1.7-2.2-2.2c-0.9-0.5-2-0.8-3.1-0.8s-2.2,0.3-3.1,0.8s-1.7,1.3-2.2,2.2s-0.8,2-0.8,3.2
					s0.3,2.2,0.8,3.2c0.5,0.9,1.3,1.7,2.2,2.2c0.9,0.5,2,0.8,3.1,0.8S412.5,233.9,413.5,233.4z"/>
				<path d="M426.6,235.9c-1.4-0.8-2.5-1.8-3.3-3.2s-1.2-2.9-1.2-4.6c0-1.7,0.4-3.3,1.2-4.6c0.8-1.4,1.9-2.4,3.4-3.2
					c1.4-0.8,3-1.2,4.8-1.2c1.4,0,2.7,0.2,3.9,0.7c1.2,0.5,2.2,1.2,3,2.2l-2.1,2c-1.3-1.4-2.8-2-4.7-2c-1.2,0-2.3,0.3-3.2,0.8
					c-1,0.5-1.7,1.3-2.2,2.2s-0.8,2-0.8,3.2s0.3,2.2,0.8,3.2c0.5,0.9,1.3,1.7,2.2,2.2c0.9,0.5,2,0.8,3.2,0.8c1.8,0,3.4-0.7,4.7-2.1
					l2.1,2c-0.8,0.9-1.8,1.7-3,2.2s-2.5,0.7-3.9,0.7C429.6,237,428,236.6,426.6,235.9z"/>
				<path d="M444.2,235.9c-1.4-0.8-2.5-1.8-3.3-3.2s-1.2-2.9-1.2-4.6c0-1.7,0.4-3.3,1.2-4.6c0.8-1.4,1.9-2.4,3.4-3.2
					c1.4-0.8,3-1.2,4.8-1.2c1.4,0,2.7,0.2,3.9,0.7c1.2,0.5,2.2,1.2,3,2.2l-2.1,2c-1.3-1.4-2.8-2-4.7-2c-1.2,0-2.3,0.3-3.2,0.8
					c-1,0.5-1.7,1.3-2.2,2.2s-0.8,2-0.8,3.2s0.3,2.2,0.8,3.2c0.5,0.9,1.3,1.7,2.2,2.2c0.9,0.5,2,0.8,3.2,0.8c1.8,0,3.4-0.7,4.7-2.1
					l2.1,2c-0.8,0.9-1.8,1.7-3,2.2s-2.5,0.7-3.9,0.7C447.3,237,445.7,236.6,444.2,235.9z"/>
				<path d="M459,219.3h3.2v12.4l9.4-12.4h3v17.5h-3.2v-12.4l-9.4,12.4h-3V219.3z"/>
				<path d="M479.6,219.3h3.2v12.4l9.4-12.4h3v17.5H492v-12.4l-9.4,12.4h-3V219.3z M484,217.2c-0.8-0.6-1.1-1.5-1.2-2.7h2.3
					c0,0.6,0.2,1.1,0.6,1.4c0.4,0.3,0.9,0.5,1.7,0.5c0.7,0,1.3-0.2,1.7-0.5s0.6-0.8,0.6-1.4h2.2c0,1.2-0.4,2.1-1.2,2.7
					c-0.8,0.6-1.9,0.9-3.4,0.9C485.8,218.1,484.7,217.8,484,217.2z"/>
				<path d="M503.3,235.9c-1.4-0.8-2.5-1.8-3.3-3.2s-1.2-2.9-1.2-4.6c0-1.7,0.4-3.3,1.2-4.6c0.8-1.4,1.9-2.4,3.4-3.2
					c1.4-0.8,3-1.2,4.8-1.2c1.4,0,2.7,0.2,3.9,0.7c1.2,0.5,2.2,1.2,3,2.2l-2.1,2c-1.3-1.4-2.8-2-4.7-2c-1.2,0-2.3,0.3-3.2,0.8
					c-1,0.5-1.7,1.3-2.2,2.2s-0.8,2-0.8,3.2s0.3,2.2,0.8,3.2c0.5,0.9,1.3,1.7,2.2,2.2c0.9,0.5,2,0.8,3.2,0.8c1.8,0,3.4-0.7,4.7-2.1
					l2.1,2c-0.8,0.9-1.8,1.7-3,2.2s-2.5,0.7-3.9,0.7C506.4,237,504.8,236.6,503.3,235.9z"/>
				<path d="M524.6,229.4h-3.2v7.4h-3.2v-17.5h3.2v7.3h3.3l5-7.3h3.4l-6,8.5l6.2,9h-3.7L524.6,229.4z"/>
				<path d="M535.6,219.3h3.2v12.4l9.4-12.4h3v17.5H548v-12.4l-9.4,12.4h-3V219.3z"/>
				<path d="M556.1,219.3h3.2v12.4l9.4-12.4h3v17.5h-3.2v-12.4l-9.4,12.4h-3V219.3z M560.5,217.2c-0.8-0.6-1.1-1.5-1.2-2.7h2.3
					c0,0.6,0.2,1.1,0.6,1.4c0.4,0.3,0.9,0.5,1.7,0.5c0.7,0,1.3-0.2,1.7-0.5s0.6-0.8,0.6-1.4h2.2c0,1.2-0.4,2.1-1.2,2.7
					c-0.8,0.6-1.9,0.9-3.4,0.9C562.4,218.1,561.3,217.8,560.5,217.2z"/>
				<path d="M384.3,249.3h13.6v2.7h-10.4v4.3h5.2c2.1,0,3.7,0.4,4.8,1.3c1.1,0.9,1.6,2.1,1.6,3.8c0,1.7-0.6,3.1-1.8,4
					c-1.2,0.9-2.9,1.4-5.1,1.4h-7.9L384.3,249.3L384.3,249.3z M392,264.3c1.2,0,2.2-0.2,2.8-0.7c0.7-0.5,1-1.2,1-2.1
					c0-1.8-1.3-2.7-3.8-2.7h-4.5v5.5L392,264.3L392,264.3z"/>
				<path d="M402.7,249.3h3.2v12.4l9.4-12.4h3v17.5h-3.2v-12.4l-9.4,12.4h-3V249.3z"/>
				<path d="M426.4,265.8c-1.4-0.8-2.6-1.8-3.4-3.2c-0.8-1.4-1.2-2.9-1.2-4.6s0.4-3.2,1.2-4.6c0.8-1.4,1.9-2.4,3.4-3.2
					c1.4-0.8,3-1.2,4.8-1.2s3.4,0.4,4.8,1.2s2.6,1.8,3.4,3.2s1.2,2.9,1.2,4.6s-0.4,3.3-1.2,4.6c-0.8,1.4-1.9,2.4-3.4,3.2
					c-1.4,0.8-3,1.2-4.8,1.2C429.5,267,427.9,266.6,426.4,265.8z M434.4,263.4c0.9-0.5,1.7-1.3,2.2-2.2c0.5-0.9,0.8-2,0.8-3.2
					s-0.3-2.2-0.8-3.2c-0.5-0.9-1.3-1.7-2.2-2.2c-0.9-0.5-2-0.8-3.1-0.8c-1.2,0-2.2,0.3-3.1,0.8s-1.7,1.3-2.2,2.2s-0.8,2-0.8,3.2
					c0,1.2,0.3,2.2,0.8,3.2c0.5,0.9,1.3,1.7,2.2,2.2s2,0.8,3.1,0.8C432.4,264.2,433.5,263.9,434.4,263.4z"/>
				<path d="M456.7,252h-5.8v14.7h-3.2V252h-5.8v-2.7h14.8V252z"/>
				<path d="M472.7,264v2.7h-13.1v-17.5h12.8v2.7h-9.5v4.5h8.4v2.7h-8.4v4.8L472.7,264L472.7,264z"/>
				<path d="M478.1,249.3l4.1,5.8l4.1-5.8h3.8l-5.9,8.4l6.3,9.1h-3.8l-4.5-6.4l-4.5,6.4H474l6.3-9l-5.9-8.5L478.1,249.3L478.1,249.3
					z"/>
				<path d="M508.3,249.3v17.5h-3.2v-7.5h-9v7.5h-3.2v-17.5h3.2v7.2h9v-7.2H508.3z"/>
				<path d="M516.5,265.8c-1.4-0.8-2.6-1.8-3.4-3.2c-0.8-1.4-1.2-2.9-1.2-4.6s0.4-3.2,1.2-4.6c0.8-1.4,1.9-2.4,3.4-3.2
					c1.4-0.8,3-1.2,4.8-1.2s3.4,0.4,4.8,1.2c1.4,0.8,2.6,1.8,3.4,3.2c0.8,1.4,1.2,2.9,1.2,4.6s-0.4,3.3-1.2,4.6
					c-0.8,1.4-1.9,2.4-3.4,3.2c-1.4,0.8-3,1.2-4.8,1.2S517.9,266.6,516.5,265.8z M524.5,263.4c0.9-0.5,1.7-1.3,2.2-2.2
					c0.5-0.9,0.8-2,0.8-3.2s-0.3-2.2-0.8-3.2c-0.5-0.9-1.3-1.7-2.2-2.2s-2-0.8-3.1-0.8c-1.2,0-2.2,0.3-3.1,0.8
					c-0.9,0.5-1.7,1.3-2.2,2.2s-0.8,2-0.8,3.2c0,1.2,0.3,2.2,0.8,3.2c0.5,0.9,1.3,1.7,2.2,2.2s2,0.8,3.1,0.8
					C522.5,264.2,523.5,263.9,524.5,263.4z"/>
				<path d="M548.8,249.3v17.5h-3.2V252h-6.9l-0.1,4.4c-0.1,2.4-0.3,4.4-0.6,6c-0.3,1.5-0.8,2.7-1.5,3.5s-1.7,1.2-2.9,1.2
					c-0.4,0-1-0.1-1.8-0.2l0.2-2.8c0.2,0.1,0.5,0.1,0.7,0.1c1,0,1.7-0.6,2.2-1.8c0.4-1.2,0.7-3.1,0.8-5.7l0.2-7.2h12.9L548.8,249.3
					L548.8,249.3z"/>
				<path d="M557,265.8c-1.4-0.8-2.6-1.8-3.4-3.2c-0.8-1.4-1.2-2.9-1.2-4.6s0.4-3.2,1.2-4.6c0.8-1.4,1.9-2.4,3.4-3.2
					c1.4-0.8,3-1.2,4.8-1.2s3.4,0.4,4.8,1.2c1.4,0.8,2.6,1.8,3.4,3.2c0.8,1.4,1.2,2.9,1.2,4.6s-0.4,3.3-1.2,4.6
					c-0.8,1.4-1.9,2.4-3.4,3.2c-1.4,0.8-3,1.2-4.8,1.2S558.4,266.6,557,265.8z M565,263.4c0.9-0.5,1.7-1.3,2.2-2.2
					c0.5-0.9,0.8-2,0.8-3.2s-0.3-2.2-0.8-3.2c-0.5-0.9-1.3-1.7-2.2-2.2s-2-0.8-3.1-0.8c-1.2,0-2.2,0.3-3.1,0.8
					c-0.9,0.5-1.7,1.3-2.2,2.2s-0.8,2-0.8,3.2c0,1.2,0.3,2.2,0.8,3.2c0.5,0.9,1.3,1.7,2.2,2.2s2,0.8,3.1,0.8
					C563,264.2,564,263.9,565,263.4z"/>
				<path d="M586.7,252H578v14.7h-3.2v-17.5h11.9V252z"/>
				<path d="M589.5,249.3h3.2v12.4l9.4-12.4h3v17.5h-3.2v-12.4l-9.4,12.4h-3V249.3z"/>
				<path d="M623.1,249.3v17.5h-3.2v-6.6c-1.6,0.6-3.2,0.9-4.7,0.9c-2.2,0-4-0.5-5.2-1.6s-1.8-2.6-1.8-4.6v-5.6h3.2v5.2
					c0,1.2,0.4,2.2,1.1,2.8s1.7,1,3.1,1c1.5,0,2.9-0.3,4.3-0.9v-8.1L623.1,249.3L623.1,249.3z"/>
				<path d="M641.2,264v2.7H628v-17.5h12.8v2.7h-9.5v4.5h8.4v2.7h-8.4v4.8L641.2,264L641.2,264z"/>
				<path d="M648,265.8c-1.4-0.8-2.5-1.8-3.3-3.2c-0.8-1.4-1.2-2.9-1.2-4.6s0.4-3.3,1.2-4.6c0.8-1.4,1.9-2.4,3.4-3.2
					c1.4-0.8,3-1.2,4.8-1.2c1.4,0,2.7,0.2,3.9,0.7s2.2,1.2,3,2.2l-2.1,2c-1.3-1.4-2.8-2-4.7-2c-1.2,0-2.3,0.3-3.2,0.8
					c-1,0.5-1.7,1.3-2.2,2.2s-0.8,2-0.8,3.2s0.3,2.2,0.8,3.2c0.5,0.9,1.3,1.7,2.2,2.2s2,0.8,3.2,0.8c1.8,0,3.4-0.7,4.7-2.1l2.1,2
					c-0.8,0.9-1.8,1.7-3,2.2s-2.5,0.7-3.9,0.7C651,267,649.4,266.6,648,265.8z"/>
				<path d="M669.2,259.4H666v7.4h-3.2v-17.5h3.2v7.3h3.3l5-7.3h3.4l-6,8.5l6.2,9h-3.7L669.2,259.4z"/>
				<path d="M680.2,249.3h3.2v12.4l9.4-12.4h3v17.5h-3.2v-12.4l-9.4,12.4h-3V249.3z"/>
				<path d="M700.8,249.3h3.2v12.4l9.4-12.4h3v17.5h-3.2v-12.4l-9.4,12.4h-3V249.3z M705.1,247.2c-0.8-0.6-1.1-1.5-1.2-2.7h2.3
					c0,0.6,0.2,1.1,0.6,1.4c0.4,0.3,0.9,0.5,1.7,0.5c0.7,0,1.3-0.2,1.7-0.5s0.6-0.8,0.6-1.4h2.2c0,1.2-0.4,2.1-1.2,2.7
					c-0.8,0.6-1.9,0.9-3.4,0.9C707,248.1,705.9,247.8,705.1,247.2z"/>
				<path d="M399.3,279.3l-7.6,14.1c-0.7,1.2-1.5,2.2-2.4,2.8c-0.9,0.6-1.9,0.9-3,0.9c-0.9,0-1.7-0.2-2.6-0.5l0.8-2.5
					c0.7,0.2,1.2,0.3,1.7,0.3c1,0,1.9-0.5,2.6-1.6l0.3-0.4l-7-13h3.5l5.2,10.3l5.3-10.3L399.3,279.3L399.3,279.3z"/>
				<path d="M417.1,279.3v17.5h-3.2v-7.5h-9v7.5h-3.2v-17.5h3.2v7.2h9v-7.2H417.1z"/>
				<path d="M422,279.3h3.2v12.4l9.4-12.4h3v17.5h-3.2v-12.4l-9.4,12.4h-3V279.3z"/>
				<path d="M456.6,289.2c0.6,0.7,0.9,1.6,0.9,2.7c0,1.5-0.6,2.7-1.7,3.6c-1.1,0.8-2.8,1.3-4.9,1.3h-8.3v-17.5h7.8
					c2,0,3.5,0.4,4.6,1.2c1.1,0.8,1.6,1.9,1.6,3.3c0,0.9-0.2,1.7-0.7,2.4s-1.1,1.2-1.9,1.5C455.1,287.9,456,288.5,456.6,289.2z
					 M445.7,286.7h4.3c1,0,1.8-0.2,2.4-0.6c0.5-0.4,0.8-1,0.8-1.8s-0.3-1.4-0.8-1.9s-1.3-0.6-2.4-0.6h-4.3V286.7z M454.2,291.6
					c0-1.7-1.1-2.5-3.4-2.5h-5v5.1h5C453,294.2,454.2,293.4,454.2,291.6z"/>
				<path d="M474.3,294v2.7h-13.1v-17.5H474v2.7h-9.5v4.5h8.4v2.7h-8.4v4.8L474.3,294L474.3,294z"/>
				<path d="M489.1,280c1.1,0.5,2,1.2,2.6,2.1s0.9,2,0.9,3.3s-0.3,2.4-0.9,3.3s-1.5,1.7-2.6,2.2s-2.4,0.7-4,0.7h-3.9v5H478v-17.5
					h7.2C486.6,279.3,487.9,279.5,489.1,280z M488.2,288c0.7-0.6,1.1-1.5,1.1-2.6s-0.4-2-1.1-2.6s-1.8-0.9-3.2-0.9h-3.8v6.9h3.8
					C486.4,288.9,487.4,288.6,488.2,288z"/>
				<path d="M499.1,295.8c-1.4-0.8-2.5-1.8-3.3-3.2c-0.8-1.4-1.2-2.9-1.2-4.6s0.4-3.3,1.2-4.6c0.8-1.4,1.9-2.4,3.4-3.2
					c1.4-0.8,3-1.2,4.8-1.2c1.4,0,2.7,0.2,3.9,0.7c1.2,0.5,2.2,1.2,3,2.2l-2.1,2c-1.3-1.4-2.8-2-4.7-2c-1.2,0-2.3,0.3-3.2,0.8
					c-1,0.5-1.7,1.3-2.2,2.2c-0.5,0.9-0.8,2-0.8,3.2s0.3,2.2,0.8,3.2c0.5,0.9,1.3,1.7,2.2,2.2s2,0.8,3.2,0.8c1.8,0,3.4-0.7,4.7-2.1
					l2.1,2c-0.8,0.9-1.8,1.7-3,2.2s-2.5,0.7-3.9,0.7C502.1,297,500.6,296.6,499.1,295.8z"/>
				<path d="M513.9,279.3h3.2v12.4l9.4-12.4h3v17.5h-3.2v-12.4l-9.4,12.4h-3V279.3z"/>
				<path d="M547.1,282h-5.8v14.7h-3.2V282h-5.8v-2.7h14.8V282z"/>
				<path d="M563,294v2.7h-13.1v-17.5h12.8v2.7h-9.5v4.5h8.4v2.7h-8.4v4.8L563,294L563,294z"/>
				<path d="M579.4,282h-5.8v14.7h-3.2V282h-5.8v-2.7h14.8V282z"/>
			</g>
		</g>
		<g>
			<path d="M427.5,145.2c-3.2-2.8-7.9-4.2-14.1-4.2h-29v45.1h11.5v-13.8h17.5c6.2,0,10.9-1.4,14.1-4.2s4.8-6.6,4.8-11.5
				C432.2,151.8,430.6,148,427.5,145.2z M418.8,161.3c-1.3,1.2-3.3,1.7-5.9,1.7h-17.6v-12.8h17.6c2.6,0,4.5,0.6,5.9,1.7
				c1.3,1.1,2,2.7,2,4.7C420.8,158.6,420.1,160.2,418.8,161.3z"/>
			<path d="M484.6,143.3c-4.5-2-9.9-3.1-16.3-3.1s-11.8,1-16.3,3.1c-4.5,2-7.9,4.8-10.2,8.3c-2.3,3.5-3.4,7.5-3.4,12s1.1,8.5,3.4,12
				s5.7,6.3,10.2,8.3s9.9,3.1,16.3,3.1s11.8-1,16.3-3.1c4.5-2,7.9-4.8,10.2-8.3c2.3-3.5,3.4-7.5,3.4-12s-1.1-8.5-3.4-12
				C492.5,148.1,489.1,145.3,484.6,143.3z M484.7,170.8c-1.4,2.1-3.5,3.8-6.2,5c-2.8,1.2-6.1,1.8-10.1,1.8s-7.4-0.6-10.1-1.8
				c-2.8-1.2-4.8-2.9-6.2-5c-1.4-2.1-2.1-4.5-2.1-7.2s0.7-5.1,2.1-7.2c1.4-2.1,3.5-3.8,6.2-5c2.8-1.2,6.1-1.8,10.1-1.8
				s7.4,0.6,10.1,1.8c2.8,1.2,4.8,2.9,6.2,5c1.4,2.1,2.1,4.5,2.1,7.2C486.8,166.2,486.1,168.6,484.7,170.8z"/>
			<path d="M524.3,151.4c2.7-1.2,6-1.8,9.8-1.8c5.4,0,9.6,0.9,12.6,2.8c3,1.8,4.8,4.1,5.5,6.8h11.5c-0.6-3.6-2.1-6.8-4.5-9.7
				c-2.4-2.8-5.7-5.1-9.9-6.7c-4.2-1.7-9.3-2.5-15.2-2.5c-6.3,0-11.6,1-16,3s-7.8,4.8-10,8.3c-2.3,3.5-3.4,7.5-3.4,12
				s1.1,8.5,3.4,12s5.6,6.3,10,8.3s9.8,3,16,3c5.9,0,11-0.8,15.2-2.4c4.2-1.6,7.5-3.9,9.9-6.7s3.8-6.1,4.4-9.7h-11.5
				c-0.6,2.7-2.5,4.9-5.5,6.8c-3,1.8-7.2,2.8-12.6,2.8c-3.8,0-7.1-0.6-9.8-1.8s-4.8-2.9-6.1-5c-1.4-2.1-2.1-4.5-2.1-7.2
				s0.7-5.1,2.1-7.2C519.5,154.3,521.6,152.6,524.3,151.4z"/>
			<path d="M616.2,161.7c-2.9-2.5-7.1-3.8-12.7-3.8h-21.4v-8H618V141h-46.5v45.1h32.1c5.6,0,9.8-1.3,12.7-3.8s4.3-6,4.3-10.3
				S619.1,164.2,616.2,161.7z M607.2,175.7c-1.2,1.1-2.9,1.6-5.1,1.6h-19.6v-11.5h19.6c2.2,0,3.9,0.5,5.1,1.5c1.2,1,1.8,2.4,1.8,4.2
				S608.4,174.7,607.2,175.7z"/>
			<path d="M680.5,141h-17.8l-23.5,37.3v-10.7c0-0.1,0-0.1,0-0.2V141l0,0h-11v42v3.1H646l23.5-37.3v10.7c0,0.1,0,0.2,0,0.3v26.4l0,0
				h11l0,0v-42l0,0V141z"/>
			<path d="M735.1,143.3c-4.5-2-9.9-3.1-16.3-3.1c-6.4,0-11.8,1-16.3,3.1c-4.5,2-7.9,4.8-10.2,8.3s-3.4,7.5-3.4,12s1.1,8.5,3.4,12
				c2.3,3.5,5.7,6.3,10.2,8.3s9.9,3.1,16.3,3.1c6.4,0,11.8-1,16.3-3.1c4.5-2,7.9-4.8,10.2-8.3s3.4-7.5,3.4-12s-1.1-8.5-3.4-12
				C743,148.1,739.6,145.3,735.1,143.3z M735.2,170.8c-1.4,2.1-3.5,3.8-6.2,5c-2.8,1.2-6.1,1.8-10.1,1.8s-7.4-0.6-10.1-1.8
				c-2.8-1.2-4.8-2.9-6.2-5s-2.1-4.5-2.1-7.2s0.7-5.1,2.1-7.2c1.4-2.1,3.5-3.8,6.2-5c2.8-1.2,6.1-1.8,10.1-1.8s7.4,0.6,10.1,1.8
				c2.8,1.2,4.8,2.9,6.2,5s2.1,4.5,2.1,7.2C737.3,166.2,736.6,168.6,735.2,170.8z"/>
			<polygon points="750.1,150.6 768.7,150.6 768.7,186.1 780.1,186.1 780.1,150.6 798.7,150.6 798.7,141 750.1,141 			"/>
			<polygon points="804.6,186.1 849.3,186.1 849.3,177.1 816.1,177.1 816.1,167.2 844.8,167.2 844.8,159.2 816.1,159.2 816.1,150.1 
				849.3,150.1 849.3,141 804.6,141 			"/>
			<path d="M889.1,163.3l19-22.2H908h-14l0,0l-13.2,15.6l-8.2-9.6l-5-5.9l0,0h-14h-0.1l19,22.2l-19.6,22.9h0.4h14l0,0l10.5-12.4l0,0
				l3.1-3.6l13.6,16l0,0h14h0.4L889.1,163.3z"/>
		</g>
	</g>
	<g>
		<g>
			<g>
				<path d="M97.7,229.7h-4.9v-15.3h-3.5v-3.9h8.4V229.7z"/>
				<path d="M107.8,229.9c-2.4,0-4.5-0.5-6.2-1.6l1.9-3.4c1.1,0.8,2.5,1.2,4,1.2s2.6-0.4,3.4-1.3c0.8-0.9,1.1-2.1,1.1-3.8
					c-1,1.4-2.5,2.1-4.6,2.1c-1.9,0-3.4-0.6-4.5-1.7c-1.1-1.1-1.7-2.6-1.7-4.5c0-2,0.7-3.6,2-4.8s3.1-1.8,5.2-1.8
					c2.6,0,4.6,0.9,6.1,2.6c1.5,1.7,2.2,4,2.2,7c0,3.1-0.8,5.5-2.4,7.3C112.7,229,110.5,229.9,107.8,229.9z M108.5,219.5
					c0.9,0,1.7-0.2,2.2-0.7s0.8-1.1,0.8-1.9c0-0.8-0.2-1.4-0.7-1.9s-1.2-0.8-2.1-0.8s-1.6,0.2-2.1,0.7s-0.8,1.2-0.8,2
					s0.2,1.5,0.7,1.9C106.9,219.3,107.6,219.5,108.5,219.5z"/>
				<path d="M126.5,218.3l0.9,0.1c1.4,0.2,2.6,0.8,3.5,1.7s1.3,2.1,1.3,3.5c0,1.8-0.7,3.4-2,4.5c-1.3,1.2-3.1,1.7-5.3,1.7
					c-1.3,0-2.6-0.2-3.9-0.6c-1.3-0.4-2.4-1-3.3-1.7l2-3.7c1.4,1.6,3,2.3,4.8,2.3c1,0,1.7-0.2,2.2-0.7c0.5-0.4,0.8-1.1,0.8-1.8
					c0-1.6-1-2.4-3-2.4h-3.1v-2.6l4.3-4.4h-7v-3.7h12.7v2.8L126.5,218.3z"/>
				<path d="M142.7,210.3c2.7,0,4.8,0.8,6.3,2.5s2.2,4.1,2.2,7.2c0,3.1-0.7,5.6-2.2,7.2c-1.5,1.7-3.6,2.5-6.3,2.5s-4.9-0.8-6.3-2.5
					c-1.5-1.7-2.2-4.1-2.2-7.2c0-3.1,0.7-5.5,2.2-7.2C137.8,211.2,140,210.3,142.7,210.3z M142.7,213.9c-1.2,0-2.1,0.5-2.7,1.4
					c-0.5,1-0.8,2.5-0.8,4.7s0.3,3.8,0.8,4.7c0.5,1,1.4,1.5,2.7,1.5c1.2,0,2.1-0.5,2.6-1.5c0.6-1,0.8-2.6,0.8-4.7
					c0-2.2-0.3-3.8-0.8-4.7S143.9,213.9,142.7,213.9z"/>
			</g>
		</g>
		<g>
			<path class="st0" d="M216.8,110.4c0,1.1,0.9,2,2,2s2-0.9,2-2s-0.9-2-2-2C217.8,108.4,216.8,109.3,216.8,110.4z"/>
			<circle class="st0" cx="218.2" cy="121.2" r="2.7"/>
			<circle class="st0" cx="209.4" cy="113.5" r="4.8"/>
			<circle class="st0" cx="197.7" cy="124.1" r="6.2"/>
			<ellipse class="st0" cx="174" cy="134.1" rx="6.2" ry="6.2"/>
			<circle class="st0" cx="153.5" cy="149.9" r="6.2"/>
			<circle class="st0" cx="137.6" cy="170.4" r="6.2"/>
			<circle class="st0" cx="127.8" cy="194.3" r="6.2"/>
			<circle class="st0" cx="171.2" cy="113.2" r="2.7"/>
			<circle class="st0" cx="185.5" cy="107.3" r="2.7"/>
			<circle class="st0" cx="200.5" cy="103.4" r="2.7"/>
			<path class="st0" d="M157.6,123.8c1.5,0,2.7-1.2,2.7-2.7s-1.2-2.7-2.7-2.7s-2.7,1.2-2.7,2.7C154.9,122.5,156.1,123.8,157.6,123.8
				z"/>
			<circle class="st0" cx="134.3" cy="141.5" r="2.7"/>
			<circle class="st0" cx="145.3" cy="130.5" r="2.7"/>
			<circle class="st0" cx="111.1" cy="181.5" r="2.7"/>
			<circle class="st0" cx="117.1" cy="167.2" r="2.7"/>
			<circle class="st0" cx="124.8" cy="153.7" r="2.7"/>
			<circle class="st0" cx="107" cy="196.6" r="2.7"/>
			<path class="st0" d="M216.1,104.2c1.5,0,2.7-1.2,2.7-2.7s-1.2-2.7-2.7-2.7s-2.7,1.2-2.7,2.7C213.3,102.9,214.6,104.2,216.1,104.2
				z"/>
			<circle class="st0" cx="105.5" cy="188.3" r="2.1"/>
			<path class="st0" d="M108.5,173.3c0,1.1,0.9,2.1,2.1,2.1c1.1,0,2.1-0.9,2.1-2.1c0-1.1-0.9-2.1-2.1-2.1
				C109.5,171.2,108.5,172.1,108.5,173.3z"/>
			<path class="st0" d="M115.6,158.8c0,1.1,0.9,2.1,2.1,2.1c1.1,0,2.1-0.9,2.1-2.1c0-1.1-0.9-2.1-2.1-2.1S115.6,157.6,115.6,158.8z"
				/>
			<circle class="st0" cx="126.6" cy="145.8" r="2.1"/>
			<circle class="st0" cx="137.2" cy="133.6" r="2.1"/>
			<circle class="st0" cx="149.1" cy="123" r="2.1"/>
			<circle class="st0" cx="162.4" cy="114.1" r="2.1"/>
			<circle class="st0" cx="176.8" cy="107.1" r="2.1"/>
			<circle class="st0" cx="191.9" cy="102" r="2.1"/>
			<circle class="st0" cx="207.5" cy="98.9" r="2.1"/>
			<circle class="st0" cx="215.5" cy="91.3" r="2.1"/>
			<circle class="st0" cx="198.3" cy="93.3" r="2.1"/>
			<circle class="st0" cx="182.3" cy="97.6" r="2.1"/>
			<path class="st0" d="M166.4,106.2c1.1,0,2.1-0.9,2.1-2.1c0-1.1-0.9-2.1-2.1-2.1c-1.1,0-2.1,0.9-2.1,2.1S165.3,106.2,166.4,106.2z
				"/>
			<path class="st0" d="M152.1,114.5c1.1,0,2.1-0.9,2.1-2.1c0-1.1-0.9-2.1-2.1-2.1c-1.1,0-2.1,0.9-2.1,2.1
				C150.1,113.6,151,114.5,152.1,114.5z"/>
			<circle class="st0" cx="138.4" cy="122.9" r="2.1"/>
			<circle class="st0" cx="126.6" cy="134.5" r="2.1"/>
			<circle class="st0" cx="116.2" cy="148.2" r="2.1"/>
			<circle class="st0" cx="107.9" cy="162.5" r="2.1"/>
			<circle class="st0" cx="101.3" cy="178.5" r="2.1"/>
			<circle class="st0" cx="97" cy="194.4" r="2.1"/>
			<path class="st0" d="M170.7,121.4c0-2.2-1.7-3.9-3.9-3.9s-3.9,1.7-3.9,3.9s1.7,3.9,3.9,3.9S170.7,123.5,170.7,121.4z"/>
			<path class="st0" d="M190.3,109.9c0,2.2,1.7,3.9,3.9,3.9s3.9-1.7,3.9-3.9s-1.7-3.9-3.9-3.9C192.1,106,190.3,107.8,190.3,109.9z"
				/>
			<circle class="st0" cx="143.2" cy="139.3" r="3.9"/>
			<circle class="st0" cx="125" cy="162.9" r="3.9"/>
			<path class="st0" d="M113.7,186.3c-2.2,0-3.9,1.7-3.9,3.9s1.7,3.9,3.9,3.9c2.2,0,3.9-1.7,3.9-3.9S115.9,186.3,113.7,186.3z"/>
			<circle class="st0" cx="182.3" cy="120.2" r="4.8"/>
			<circle class="st0" cx="157.7" cy="134.5" r="4.8"/>
			<circle class="st0" cx="137.8" cy="154.2" r="4.8"/>
			<path class="st0" d="M124.1,183.5c2.7,0,4.8-2.2,4.8-4.8c0-2.7-2.2-4.8-4.8-4.8c-2.7,0-4.8,2.2-4.8,4.8
				C119.2,181.3,121.4,183.5,124.1,183.5z"/>
			<circle class="st0" cx="172.6" cy="152" r="7.6"/>
			<circle class="st0" cx="190.8" cy="141.1" r="7.6"/>
			<circle class="st0" cx="212.2" cy="134.3" r="7.6"/>
			<circle class="st0" cx="156.6" cy="167.7" r="7.6"/>
			<ellipse class="st0" cx="145.3" cy="187.3" rx="7.6" ry="7.6"/>
		</g>
		<g>
			<path class="st0" d="M216.8,329.2c0-1.1,0.9-2,2-2s2,0.9,2,2s-0.9,2-2,2C217.8,331.2,216.8,330.3,216.8,329.2z"/>
			<circle class="st0" cx="218.2" cy="318.4" r="2.7"/>
			<circle class="st0" cx="209.4" cy="326.1" r="4.8"/>
			<circle class="st0" cx="197.7" cy="315.5" r="6.2"/>
			
				<ellipse transform="matrix(0.3827 -0.9239 0.9239 0.3827 -174.8702 349.4503)" class="st0" cx="174.1" cy="305.6" rx="6.2" ry="6.2"/>
			<circle class="st0" cx="153.5" cy="289.7" r="6.2"/>
			<circle class="st0" cx="137.6" cy="269.2" r="6.2"/>
			<circle class="st0" cx="127.8" cy="245.3" r="6.2"/>
			<circle class="st0" cx="171.2" cy="326.5" r="2.7"/>
			<circle class="st0" cx="185.5" cy="332.4" r="2.7"/>
			<circle class="st0" cx="200.5" cy="336.2" r="2.7"/>
			<path class="st0" d="M157.6,315.9c1.5,0,2.7,1.2,2.7,2.7s-1.2,2.7-2.7,2.7s-2.7-1.2-2.7-2.7C154.9,317.1,156.1,315.9,157.6,315.9
				z"/>
			<circle class="st0" cx="134.3" cy="298.1" r="2.7"/>
			<circle class="st0" cx="145.3" cy="309.2" r="2.7"/>
			<circle class="st0" cx="111.1" cy="258.1" r="2.7"/>
			<circle class="st0" cx="117.1" cy="272.4" r="2.7"/>
			<circle class="st0" cx="124.8" cy="286" r="2.7"/>
			<circle class="st0" cx="107" cy="243" r="2.7"/>
			<path class="st0" d="M216.1,335.5c1.5,0,2.7,1.2,2.7,2.7s-1.2,2.7-2.7,2.7s-2.7-1.2-2.7-2.7C213.3,336.7,214.6,335.5,216.1,335.5
				z"/>
			<circle class="st0" cx="105.5" cy="251.4" r="2.1"/>
			<path class="st0" d="M108.5,266.4c0-1.1,0.9-2.1,2.1-2.1c1.1,0,2.1,0.9,2.1,2.1c0,1.1-0.9,2.1-2.1,2.1
				C109.5,268.4,108.5,267.5,108.5,266.4z"/>
			<path class="st0" d="M115.6,280.8c0-1.1,0.9-2.1,2.1-2.1c1.1,0,2.1,0.9,2.1,2.1c0,1.1-0.9,2.1-2.1,2.1S115.6,282,115.6,280.8z"/>
			<circle class="st0" cx="126.6" cy="293.9" r="2.1"/>
			<circle class="st0" cx="137.2" cy="306" r="2.1"/>
			<circle class="st0" cx="149.1" cy="316.6" r="2.1"/>
			<circle class="st0" cx="162.4" cy="325.5" r="2.1"/>
			<circle class="st0" cx="176.8" cy="332.5" r="2.1"/>
			<circle class="st0" cx="191.9" cy="337.6" r="2.1"/>
			<circle class="st0" cx="207.5" cy="340.7" r="2.1"/>
			<circle class="st0" cx="215.5" cy="348.3" r="2.1"/>
			<circle class="st0" cx="198.3" cy="346.3" r="2.1"/>
			<circle class="st0" cx="182.3" cy="342" r="2.1"/>
			<path class="st0" d="M166.4,333.4c1.1,0,2.1,0.9,2.1,2.1c0,1.1-0.9,2.1-2.1,2.1c-1.1,0-2.1-0.9-2.1-2.1S165.3,333.4,166.4,333.4z
				"/>
			<path class="st0" d="M152.1,325.1c1.1,0,2.1,0.9,2.1,2.1c0,1.1-0.9,2.1-2.1,2.1c-1.1,0-2.1-0.9-2.1-2.1
				C150.1,326,151,325.1,152.1,325.1z"/>
			<circle class="st0" cx="138.4" cy="316.8" r="2.1"/>
			<circle class="st0" cx="126.6" cy="305.2" r="2.1"/>
			<circle class="st0" cx="116.2" cy="291.4" r="2.1"/>
			<circle class="st0" cx="107.9" cy="277.1" r="2.1"/>
			<circle class="st0" cx="101.3" cy="261.2" r="2.1"/>
			<circle class="st0" cx="97" cy="245.2" r="2.1"/>
			<path class="st0" d="M170.7,318.3c0,2.2-1.7,3.9-3.9,3.9s-3.9-1.7-3.9-3.9s1.7-3.9,3.9-3.9S170.7,316.1,170.7,318.3z"/>
			<path class="st0" d="M190.3,329.7c0-2.2,1.7-3.9,3.9-3.9s3.9,1.7,3.9,3.9c0,2.2-1.7,3.9-3.9,3.9
				C192.1,333.6,190.3,331.8,190.3,329.7z"/>
			<circle class="st0" cx="143.2" cy="300.3" r="3.9"/>
			<circle class="st0" cx="125" cy="276.8" r="3.9"/>
			<path class="st0" d="M113.7,253.3c-2.2,0-3.9-1.7-3.9-3.9s1.7-3.9,3.9-3.9c2.2,0,3.9,1.7,3.9,3.9S115.9,253.3,113.7,253.3z"/>
			<circle class="st0" cx="182.3" cy="319.4" r="4.8"/>
			<circle class="st0" cx="157.7" cy="305.2" r="4.8"/>
			<circle class="st0" cx="137.8" cy="285.4" r="4.8"/>
			<path class="st0" d="M124.1,256.2c2.7,0,4.8,2.2,4.8,4.8c0,2.7-2.2,4.8-4.8,4.8c-2.7,0-4.8-2.2-4.8-4.8
				C119.2,258.3,121.4,256.2,124.1,256.2z"/>
			<circle class="st0" cx="172.6" cy="287.6" r="7.6"/>
			<circle class="st0" cx="190.8" cy="298.5" r="7.6"/>
			<circle class="st0" cx="212.2" cy="305.4" r="7.6"/>
			<circle class="st0" cx="156.6" cy="271.9" r="7.6"/>
			<ellipse class="st0" cx="145.3" cy="252.4" rx="7.6" ry="7.6"/>
		</g>
		<circle class="st1" cx="225.6" cy="220" r="44.6"/>
		<path d="M225.6,95.9L225.6,95.9v45.2l0,0c21.1,0,40.9,8.2,55.8,23.1c14.9,14.9,23.1,34.7,23.1,55.8s-8.2,40.9-23.1,55.8
			s-34.7,23.1-55.8,23.1l0,0v45.2l0,0c68.6,0,124.1-55.6,124.1-124.1C349.7,151.5,294.2,95.9,225.6,95.9z"/>
	</g>
</g>
</svg>
